<svg enable-background="new 0 0 627 258" viewBox="0 0 627 258" xmlns="http://www.w3.org/2000/svg"><g fill="#5091cd"><path d="m44 41.5h59.8c33.6 0 46 17.8 46 36.5 0 18-11.6 38-48.2 38h-17v41.3h-40.6zm50.7 53c12.7 0 17.8-6.1 17.8-16 0-10-4.9-15.5-18-15.5h-9.9v31.4h10.1z"/><path d="m186.2 67.7v24h.3c6.3-16.8 16.3-25.5 28.7-25.5 6.8 0 13.6 2.2 21.7 7l-15.6 35.7c-5.6-5.3-10.2-7.5-15.1-7.5-8.7 0-14.8 8.5-16.6 18.9v37.2h-35.3v-89.8z"/><path d="m324 141.4c-9.9 11.4-24.3 17.5-41.4 17.5-30.9 0-51-20.6-51-46.7 0-26.3 19.9-46 46.4-46 27.3 0 48.8 21.9 44.8 53h-58.6c.2 9.2 11 17.8 24.6 17.8 9.5 0 18.3-3.1 28.7-10.2zm-30.2-35.5c-.2-13.2-5.3-20-15.5-20-9.2 0-16.3 5.9-15.5 20z"/><path d="m442.4 153.6c-13.6 3.2-31.6 5.4-45.5 5.4-49.8 0-67.3-33-67.3-58.3 0-36 28.5-60.8 70.2-60.8 13.8 0 27.7 2.7 40.4 7.8v29c-11.9-6.5-23.6-9.9-34.5-9.9-21.2 0-35.5 13.2-35.5 33 0 20.9 16 33.5 41.1 29.9v-13.6h-14.4v-24.3h45.5z"/><path d="m543.5 141.4c-9.9 11.4-24.3 17.5-41.4 17.5-30.9 0-51-20.6-51-46.7 0-26.3 19.9-46 46.4-46 27.3 0 48.8 21.9 44.8 53h-58.6c.2 9.2 11 17.8 24.6 17.8 9.5 0 18.3-3.1 28.7-10.2zm-30.3-35.5c-.2-13.2-5.3-20-15.5-20-9.2 0-16.3 5.9-15.5 20z"/><path d="m549.2 41.5h35.3v115.8h-35.3z"/><path d="m65.9 224.1c-3.2 5.1-7.4 7.6-12.7 7.6-2 0-3.9-.8-5.7-2.5-1.8-1.6-3-3.5-3.8-5.8-.1-.5-.1-.8-.1-1 .1-.6.4-.8.9-.5.3.1.7.6 1.2 1.4 2.3 3.8 4.8 5.8 7.2 5.8 5.5 0 9.8-3.8 13-11.4 2.2-5.1 3.5-10.7 3.9-16.7.4-4.5.5-7.9.5-10.2 0-3.5-.3-7.2-1-10.9-.3.9-.9 3-1.9 6.3-1.6 5.4-4.1 10.7-7.4 15.7-3.4 5.3-6.4 7.9-9 7.9-2.4 0-3.6-1.6-3.6-4.7 0-2 .8-5.6 2.3-10.9.9-2.9 2-6.7 3.4-11.5.7-2.7 1-4.6 1-5.8 0-1.5-.3-2.3-.9-2.3-.7 0-2.2 1.2-4.8 3.5-2.5 2.3-4 3.5-4.4 3.5-.9 0-1.3-.5-1.3-1.4s1.5-2.5 4.5-4.7 5.2-3.3 6.4-3.3c2.2 0 3.2 1.2 3.2 3.7 0 2.3-.8 6-2.3 11.2-1.2 3.9-2.3 7.8-3.5 11.7-.7 2.7-1 4.8-1 6.1 0 1.8.4 2.7 1.2 2.7 1.3 0 3.7-3 7.2-8.9 6-10.3 9.1-18.1 9.3-23.6 0-.4 0-.9 0-1.5 0-.8 0-1.3 0-1.5 0-1.1.5-1.7 1.4-1.7 1.1 0 2 2.9 2.8 8.7.6 4.3.9 7.2.9 8.9 0 7.7-.4 13.9-1.1 18.4-.7 7.2-2.8 13-5.8 17.7"/><path d="m82.5 210.5c-1.7.1-3-.4-4-1.7-.9-1.2-1.4-2.6-1.4-4.4 0-3 .7-6.2 2.1-9.6 1.4-3.5 2.7-5.2 4-5.2 1.1 0 1.7.5 1.7 1.4 0 .3-.3.8-.9 1.7-3 4-4.5 7.7-4.5 11.2 0 3 .7 4.5 2.2 4.5 2.3 0 4.5-2.1 6.6-6.2 1.9-3.6 2.8-6.5 2.8-8.6 0-3.1-.8-4.7-2.3-4.7-1.2 0-2.5.6-3.8 1.9l-.4-.3c-.3-.2-.4-.4-.4-.7 0-.7.7-1.3 2.1-2 1.1-.6 2-.8 2.6-.8 3.1 0 4.7 2.4 4.8 7.2.1 2.3-1 5.4-3.1 9.2-2.6 4.5-5.3 6.8-8.1 7.1"/><path d="m109.6 197.7c-2.1 4.3-3.4 6.9-4 7.9-2.1 3.2-4.2 4.8-6.5 4.8-1.8 0-2.7-1.8-2.7-5.4 0-1 .5-3.8 1.6-8.4 1.3-5.2 2.3-7.8 3.2-7.9.4 0 .8.1 1.2.4s.6.6.6.9c0 .2-.1.4-.2.7l-.5 1.3c-2.4 6.6-3.7 11.2-3.7 13.9 0 1.6.3 2.4.8 2.4.7 0 1.8-.9 3.2-2.7 1.6-1.9 3.1-4.4 4.7-7.4 1.7-3.4 2.6-6 2.6-7.7 0-.6.2-1.2.6-1.7s.8-.8 1.3-.8c1 0 1.4.5 1.4 1.4 0 .2-.2 1.1-.5 2.8s-.5 3.4-.5 4.9c0 6 .9 9.1 2.8 9.1.4 0 .9-.3 1.4-.8.2-.2.6-.5 1-.8.4.4.6.7.6.9 0 .7-.5 1.3-1.4 1.8-.8.4-1.4.7-1.9.7-3 0-4.7-3.3-5.2-9.8z"/><path d="m124.6 194.7c2.4-6.1 4.9-9.1 7.6-9.1 1.8 0 2.9.8 3.2 2.5.2 1-.2 1.5-1 1.5-.3 0-.5-.1-.6-.3s-.2-.4-.2-.7l-.1-.3c-.1-.4-.3-.6-.7-.6-.9 0-2.1 1-3.6 3-1.7 2.4-2.9 4.5-3.6 6.5-.7 2.1-1.1 4.5-1 7.2 0 .1.1 1.7.2 4.7 0 .4-.2.7-.6 1s-.7.5-1.1.5c-1.1 0-1.5-.8-1.4-2.5.3-3.9.5-7.1.5-9.7 0-2.7-.2-5.7-.5-9.1 0-.4.1-.8.5-1.2s.7-.6 1.1-.6c.6 0 1.1.3 1.4 1 .2.5.3.9.2 1.3-.2 1.8-.3 3.5-.3 4.9"/><path d="m153.1 196c3.9-5.7 7.8-8.6 11.7-8.6 2.5 0 3.8 1.8 3.8 5.5 0 3-1.3 6.4-4 10-2.8 3.8-5.5 5.7-8 5.7-1.9 0-2.9-1-2.9-3 0-.6.2-1.4.6-2.3h1.2c0 .4 0 .8-.1 1.2-.1.5-.1.9-.1 1.2 0 .4.3.7.8.7 2.4 0 4.8-1.9 7-5.8 2-3.4 3-6.2 3-8.4 0-1.9-.5-2.9-1.6-2.9-2.1 0-4.5 1.7-7.3 5.1-2.5 3.1-4 5.7-4.4 7.7-.7 3.5-1.1 7.5-1.2 12.1-.1 6.5.9 9.7 2.8 9.7 0 0 .1 0 .3-.1s.7-.2 1.5-.5v1.1c0 .4-.3.7-.9 1-.5.2-.9.3-1.1.3-1.6-.2-2.9-1.3-3.7-3.5-.7-1.7-1-3.7-1.1-6 0-1.1-.1-2.2-.1-3.3 0-4.1.5-11.3 1.4-21.5.3-2.8 1.1-4.2 2.4-4.2.9 0 1.3.5 1.3 1.4v.3z"/><path d="m186.3 208c-1.8-.7-2.7-2.8-2.7-6.4v-1.2c-1.9 2.5-4 4.9-6.2 7-2.9 2.7-5.2 4-6.9 4-.6 0-1-.2-1.4-.5-.7-.5-1-1.4-1-2.5 0-2.4 1.3-5.6 3.9-9.7 2.5-3.9 5.2-7.1 8.2-9.6 3.2-2.8 5.6-3.6 7.2-2.6.7.5 1.1 1.4 1.1 2.9 0 1.8-.6 2.7-1.8 2.8-.8.1-1.3-.2-1.3-.9 0-.1 0-.2.1-.3.4-.9.5-1.7.5-2.4 0-.4 0-.6-.1-.6-1.9.3-5 3.3-9.2 8.8s-6.4 9.3-6.4 11.4c0 .7.3 1.1 1 1.1 1.7 0 4.3-2.2 7.9-6.5 2.5-3 3.8-4.7 4.1-5 1.1-1.5 1.7-2.9 1.9-4.2.1-.9.6-1.3 1.4-1.3 1.2 0 1.6.6 1.4 1.7-.9 4.9-1.4 8-1.4 9 0 2 .4 3.1 1.3 3.3.3.1.6 0 1-.2.3-.2.5-.3.5-.5.2-.8.7-1.2 1.4-1.2.5 0 .7.2.7.8 0 .2-.1.5-.2.8-.6 1.5-1.7 2.3-3.2 2.3-.9-.1-1.4-.2-1.8-.3"/><path d="m207.8 189.7c-.1 0-.5-.2-1.1-.5s-1.1-.5-1.5-.5c-1.3-.1-3.1.8-5.5 2.9s-3.6 3.9-3.6 5.3c0 .8 1.4 1.2 4.2 1.2 5.4 0 8.1 1.5 8.1 4.5 0 2.1-1.2 4-3.6 5.7-2.2 1.5-4.4 2.3-6.5 2.3-1 0-1.8-.3-2.7-.9-1-.7-1.4-1.5-1.4-2.6 0-.4.2-1 .6-1.6.4-.7.9-1 1.4-1 .1 0 .3 0 .4.1-.1.7-.2 1.2-.3 1.6-.1.2-.1.4-.1.7 0 .9.5 1.3 1.5 1.3 1.6 0 3.4-.5 5.4-1.6 2.3-1.2 3.4-2.4 3.4-3.6 0-.8-.4-1.4-1.2-2-.7-.4-1.4-.7-2.2-.7l-5.5-.2c-.9 0-1.8-.2-2.7-.6-1.2-.5-1.8-1.1-1.8-1.8 0-1.9 1.5-4.3 4.5-7.2s5.5-4.4 7.5-4.4c.6 0 1.3.2 2.1.7 1 .5 1.5 1.1 1.5 1.8.2.7-.2 1.1-.9 1.1"/><path d="m224.7 189.7c-.1 0-.5-.2-1.1-.5s-1.1-.5-1.5-.5c-1.3-.1-3.1.8-5.5 2.9s-3.6 3.9-3.6 5.3c0 .8 1.4 1.2 4.2 1.2 5.4 0 8.1 1.5 8.1 4.5 0 2.1-1.2 4-3.6 5.7-2.2 1.5-4.4 2.3-6.5 2.3-1 0-1.8-.3-2.7-.9-1-.7-1.4-1.5-1.4-2.6 0-.4.2-1 .6-1.6.4-.7.9-1 1.4-1 .1 0 .3 0 .4.1-.1.7-.2 1.2-.3 1.6-.1.2-.1.4-.1.7 0 .9.5 1.3 1.5 1.3 1.6 0 3.4-.5 5.4-1.6 2.3-1.2 3.4-2.4 3.4-3.6 0-.8-.4-1.4-1.2-2-.7-.4-1.4-.7-2.2-.7l-5.5-.2c-.9 0-1.8-.2-2.7-.6-1.2-.5-1.8-1.1-1.8-1.8 0-1.9 1.5-4.3 4.5-7.2s5.5-4.4 7.5-4.4c.6 0 1.3.2 2.1.7 1 .5 1.5 1.1 1.5 1.8.1.7-.2 1.1-.9 1.1"/><path d="m234.2 211.1c-1.8 0-3.2-1.4-4.2-4.3-.7-2-1-3.9-1-5.7 0-1.7.2-3.8.6-6.3.6-3.6 1.5-5.4 2.6-5.4.9 0 1.3.5 1.3 1.5 0 .5-.3 1.3-.8 2.6-.6 1.4-1 3.7-1.2 7.1v2.8c.2 1.2.5 2.4.7 3.6.5 1.6 1.2 2.4 2.2 2.4.2 0 .4 0 .5-.1.3-.4.6-.7 1.1-.9.4.3.6.7.6 1 0 .5-.3 1-1 1.4-.4.1-.9.3-1.4.3m-1.7-28.5c-.4 0-.8-.2-1.1-.5-.3-.4-.4-.7-.4-1 0-.4.1-.8.4-1.2s.7-.6 1.1-.6c1 0 1.5.5 1.5 1.6.1 1.1-.4 1.7-1.5 1.7"/><path d="m244.6 210.5c-1.7.1-3-.4-4-1.7-.9-1.2-1.4-2.6-1.4-4.4 0-3 .7-6.2 2.1-9.6 1.4-3.5 2.7-5.2 4-5.2 1.1 0 1.7.5 1.7 1.4 0 .3-.3.8-.9 1.7-3 4-4.5 7.7-4.5 11.2 0 3 .7 4.5 2.2 4.5 2.3 0 4.5-2.1 6.6-6.2 1.9-3.6 2.8-6.5 2.8-8.6 0-3.1-.8-4.7-2.3-4.7-1.2 0-2.5.6-3.8 1.9l-.4-.3c-.3-.2-.4-.4-.4-.7 0-.7.7-1.3 2.1-2 1.2-.6 2-.8 2.6-.8 3.1 0 4.7 2.4 4.8 7.2.1 2.3-1 5.4-3.1 9.2-2.5 4.5-5.2 6.8-8.1 7.1"/><path d="m262 200.8.5-.9c4.1-7 7-10.5 8.8-10.5 1.6 0 2.7 1.2 3.2 3.6.2 1.8.3 3.7.5 5.5.3 3 .5 4.7.6 5.1.4 2.7 1.1 4 1.9 4 .4 0 .9-.3 1.5-1l1.1.3c0 .8-.3 1.4-1 1.8-.5.4-1 .5-1.4.5-2.8 0-4.5-3.1-5.1-9.4-.1-1.5-.3-3.5-.6-6.1-.2-1.6-.5-2.4-.8-2.4-.7 0-2.3 2-4.8 6.1-2.6 4.1-4.4 7.8-5.4 11.2-.3.9-.7 1.4-1.4 1.4-.9 0-1.3-.4-1.2-1.3 0-.3.6-4.4 1.8-12.2.1-1 .2-2.3.3-4.1.2-1.6.7-2.4 1.7-2.4.6 0 1 .2 1.2.6.1.4.2.9.3 1.3z"/><path d="m286.6 208.2c-.5 0-.9-.2-1.4-.5-.5-.4-.7-.8-.7-1.3 0-1 .5-1.5 1.6-1.5 1.5 0 2.2.4 2.2 1.3 0 1.3-.6 2-1.7 2"/><path d="m311 211.5c-3.5 0-6.1-1.5-7.7-4.4-1.3-2.2-1.9-5.1-1.9-8.7 0-2.3.4-4.7 1.2-7.2.6-1.6 1.1-3.2 1.7-4.8-.1-3.8 1.1-7.1 3.8-9.8 2.6-2.7 5.6-3.9 9.1-3.6 3.1.2 5.6 2 7.6 5.5 1.7 2.9 2.6 5.9 2.6 9.1 0 5.5-1.3 10.6-3.9 15.4-3.1 5.6-7.3 8.5-12.5 8.5m5.4-36.3c-2.3-.2-4.5.7-6.5 2.7-2.1 2-3.1 4.2-3.3 6.5 0-.6.3-1.3.9-2.1.7-.8 1.3-1.2 1.8-1.2.4 0 .7.2 1 .5s.4.6.4 1c0 .5-.6 1.6-1.9 3.1s-1.9 2.3-1.9 2.5c0 .1.2.4.6.7s.7.5.8.5c.6-.1.9-.1 1-.1h.4c.4 0 .6.2.6.6 0 1-.6 1.5-1.8 1.5-1.1 0-2-.3-2.7-1-1.2 2.9-1.9 5.7-1.9 8.3 0 2.7.5 5.1 1.5 7 1.2 2.4 2.9 3.6 5.1 3.6 4.4 0 8-2.5 10.6-7.6 2.2-4.2 3.3-8.8 3.3-14 0-2.8-.7-5.4-2-7.9-1.5-2.8-3.5-4.4-6-4.6"/><path d="m342.2 197.7c-2.1 4.3-3.4 6.9-4 7.9-2.1 3.2-4.2 4.8-6.5 4.8-1.8 0-2.7-1.8-2.7-5.4 0-1 .5-3.8 1.6-8.4 1.3-5.2 2.3-7.8 3.2-7.9.4 0 .8.1 1.2.4s.6.6.6.9c0 .2-.1.4-.2.7l-.4 1.3c-2.4 6.6-3.7 11.2-3.7 13.9 0 1.6.3 2.4.8 2.4.7 0 1.8-.9 3.2-2.7 1.6-1.9 3.1-4.4 4.7-7.4 1.7-3.4 2.6-6 2.6-7.7 0-.6.2-1.2.6-1.7s.8-.8 1.3-.8c1 0 1.4.5 1.4 1.4 0 .2-.2 1.1-.5 2.8s-.5 3.4-.5 4.9c0 6 .9 9.1 2.8 9.1.4 0 .9-.3 1.4-.8.2-.2.6-.5 1-.8.4.4.6.7.6.9 0 .7-.5 1.3-1.4 1.8-.8.4-1.4.7-1.9.7-3 0-4.7-3.3-5.2-9.8z"/><path d="m357.3 194.7c2.4-6.1 4.9-9.1 7.7-9.1 1.8 0 2.9.8 3.2 2.5.2 1-.2 1.5-1 1.5-.3 0-.5-.1-.6-.3s-.2-.4-.2-.7l-.1-.3c-.1-.4-.3-.6-.7-.6-.9 0-2.1 1-3.6 3-1.7 2.4-2.9 4.5-3.6 6.5-.7 2.1-1.1 4.5-1 7.2 0 .1.1 1.7.2 4.7 0 .4-.2.7-.6 1s-.7.5-1.1.5c-1.1 0-1.5-.8-1.4-2.5.3-3.9.5-7.1.5-9.7 0-2.7-.2-5.7-.5-9.1 0-.4.1-.8.5-1.2s.7-.6 1.1-.6c.6 0 1.1.3 1.4 1 .2.5.3.9.2 1.3-.3 1.8-.5 3.5-.4 4.9"/><path d="m384.5 211.1c-1.8 0-3.2-1.4-4.2-4.3-.7-2-1-3.9-1-5.7 0-1.7.2-3.8.6-6.3.6-3.6 1.5-5.4 2.6-5.4.9 0 1.3.5 1.3 1.5 0 .5-.3 1.3-.8 2.6-.6 1.4-1 3.7-1.2 7.1v2.8c.2 1.2.5 2.4.7 3.6.5 1.6 1.2 2.4 2.2 2.4.2 0 .4 0 .5-.1.3-.4.6-.7 1.1-.9.4.3.6.7.6 1 0 .5-.3 1-1 1.4-.4.1-.9.3-1.4.3m-1.7-28.5c-.4 0-.8-.2-1.1-.5-.3-.4-.4-.7-.4-1 0-.4.1-.8.4-1.2s.7-.6 1.1-.6c1 0 1.5.5 1.5 1.6.1 1.1-.5 1.7-1.5 1.7"/><path d="m394.5 200.8.5-.9c4.1-7 7-10.5 8.8-10.5 1.6 0 2.7 1.2 3.2 3.6.2 1.8.3 3.7.5 5.5.3 3 .5 4.7.6 5.1.4 2.7 1.1 4 1.9 4 .4 0 .9-.3 1.5-1l1.1.3c0 .8-.3 1.4-1 1.8-.5.4-1 .5-1.4.5-2.8 0-4.5-3.1-5.1-9.4-.1-1.5-.3-3.5-.6-6.1-.2-1.6-.5-2.4-.8-2.4-.7 0-2.3 2-4.8 6.1-2.6 4.1-4.4 7.8-5.4 11.2-.3.9-.7 1.4-1.4 1.4-.9 0-1.3-.4-1.2-1.3 0-.3.6-4.4 1.8-12.2.1-1 .2-2.3.3-4.1.2-1.6.7-2.4 1.7-2.4.6 0 1 .2 1.2.6.1.4.2.9.3 1.3z"/><path d="m424.1 227.9c-2.4 0-4.6-1.1-6.6-3.3s-3-4.6-3-7c0-1.1.4-1.7 1.1-1.7.5 0 .8.3.8 1-.1 2.2.7 4.2 2.2 5.9 1.5 1.8 3.2 2.6 5 2.6 3.8 0 6.6-2.8 8.4-8.5 1.2-3.6 1.8-7.2 1.8-10.8 0-7.2-.6-10.7-1.9-10.7-.1 0-.5.6-1.3 1.8-2.4 3.6-4.1 6-5 7.1-2.5 2.9-4.7 4.3-6.8 4.3-1.1 0-1.9-.4-2.6-1.2-.5-.7-.8-1.6-.8-2.6 0-3.2 2-7.4 6.1-12.5s7.4-7.7 10-7.7c1.1 0 1.9.6 2.6 1.8.5.9.7 1.8.7 2.7 0 1.6-.4 2.4-1.3 2.4-1.1 0-1.5-1-1.4-2.9.1-1.2-.1-1.8-.7-1.8-1.4 0-3.3 1.4-5.8 4.2-1.8 2-3.2 3.9-4.2 5.7-.8.9-1.6 2.2-2.4 3.9-1 2-1.5 3.5-1.5 4.7 0 .8.1 1.2.4 1.2 1.4 0 3.2-1.2 5.5-3.6.8-.9 2.7-3.1 5.5-6.7 1.9-2.4 3.1-3.6 3.7-3.6 1.3 0 2.3 1.9 2.9 5.7.4 2.6.7 5.1.7 7.6 0 6.1-1.2 11.4-3.6 15.6-2.3 4.3-5.2 6.4-8.5 6.4"/><path d="m443.8 194.7c2.4-6.1 4.9-9.1 7.7-9.1 1.8 0 2.9.8 3.2 2.5.2 1-.2 1.5-1 1.5-.3 0-.5-.1-.6-.3s-.2-.4-.2-.7l-.1-.3c-.1-.4-.3-.6-.7-.6-.9 0-2.1 1-3.6 3-1.7 2.4-2.9 4.5-3.6 6.5-.7 2.1-1.1 4.5-1 7.2 0 .1.1 1.7.2 4.7 0 .4-.2.7-.6 1s-.7.5-1.1.5c-1.1 0-1.5-.8-1.4-2.5.3-3.9.5-7.1.5-9.7 0-2.7-.2-5.7-.5-9.1 0-.4.1-.8.5-1.2s.7-.6 1.1-.6c.6 0 1.1.3 1.4 1 .2.5.3.9.2 1.3-.4 1.8-.5 3.5-.4 4.9"/><path d="m455.3 199.3c-.3.3-.7 1.2-1.1 2.8s-.6 2.9-.6 4.1c0 1.5 1 2.3 3 2.3 1.9 0 4.1-1.1 6.7-3.3 2.5-2.2 4.2-4.4 5.1-6.7h.9c.4.3.5.7.4 1-1.1 3.2-3 5.9-5.6 8.1-2.5 2.1-5 3.1-7.4 3.1-1.8 0-3.2-.6-4.2-1.9-.9-1.2-1.3-2.8-1.2-4.9.2-2.9 1.7-6.5 4.6-10.7 3.1-4.6 6-6.9 8.5-6.9.9 0 1.5.4 2 1.2.3.6.5 1.2.5 1.9 0 1.9-.8 4.1-2.4 6.5-1.9 2.9-4 4.4-6.5 4.4-1.2 0-2-.2-2.6-.8zm8.8-11.2c-.7.2-1.4.6-2 1.3-4 4.7-6 7.4-6 8.2 0 .2.4.3 1.3.4 1.5.1 3.1-1 4.9-3.2 1.7-2.2 2.6-4.1 2.6-5.8 0-.7-.3-1-.8-.9"/><path d="m488.3 198.7-1.1 1.3c-6.1 7.8-10.6 11.7-13.4 11.7h-.6c-1.9 0-2.9-1-2.9-2.9 0-1.6.9-4.1 2.6-7.4 1.8-3.6 3.9-6.6 6.2-9.1 2.7-2.9 5.3-4.4 7.6-4.4.9 0 1.8.3 2.7 1 .4-2.1.9-5.2 1.7-9.2.7-3.9 1.5-5.8 2.4-5.8.3 0 .7.2 1.1.5s.5.7.5 1.1c0 .1-.2.9-.7 2.5-2.4 8.4-3.7 16.4-3.7 24 0 4.4.7 6.6 2 6.6.1 0 .2-.1.4-.2l1.2-.6c.3.3.5.7.5 1 0 .4-.3.8-.9 1.2-.5.3-1 .5-1.5.5-2.8 0-4.2-3.2-4.2-9.6v-2.2zm-1.3-8.9c-2.1-.4-5.2 2.2-9.1 7.7-3.7 5.3-5.5 9-5.5 11.2 0 .5.2.8.6.8 1.7 0 4.5-2 8.5-6 3.6-3.6 5.7-6.2 6.4-7.8.4-.9.6-2 .6-3.2 0-.6-.2-1.2-.5-1.7-.2-.6-.6-.9-1-1"/><path d="m502.9 211.1c-1.8 0-3.2-1.4-4.2-4.3-.7-2-1-3.9-1-5.7 0-1.7.2-3.8.6-6.3.6-3.6 1.5-5.4 2.6-5.4.9 0 1.3.5 1.3 1.5 0 .5-.3 1.3-.8 2.6-.6 1.4-1 3.7-1.2 7.1v2.8c.2 1.2.5 2.4.7 3.6.5 1.6 1.2 2.4 2.2 2.4.2 0 .4 0 .5-.1.3-.4.6-.7 1.1-.9.4.3.6.7.6 1 0 .5-.3 1-1 1.4-.5.1-1 .3-1.4.3m-1.7-28.5c-.4 0-.8-.2-1.1-.5-.3-.4-.4-.7-.4-1 0-.4.1-.8.4-1.2s.7-.6 1.1-.6c1 0 1.5.5 1.5 1.6s-.5 1.7-1.5 1.7"/><path d="m511.8 199.3c-.3.3-.7 1.2-1.1 2.8s-.6 2.9-.6 4.1c0 1.5 1 2.3 3 2.3 1.9 0 4.1-1.1 6.7-3.3 2.5-2.2 4.2-4.4 5.1-6.7h.9c.4.3.5.7.4 1-1.1 3.2-3 5.9-5.6 8.1-2.5 2.1-5 3.1-7.4 3.1-1.8 0-3.2-.6-4.2-1.9-.9-1.2-1.3-2.8-1.2-4.9.2-2.9 1.7-6.5 4.6-10.7 3.1-4.6 6-6.9 8.5-6.9.9 0 1.5.4 2 1.2.3.6.5 1.2.5 1.9 0 1.9-.8 4.1-2.4 6.5-1.9 2.9-4 4.4-6.5 4.4-1.2 0-2-.2-2.6-.8zm8.8-11.2c-.7.2-1.4.6-2 1.3-4 4.7-6 7.4-6 8.2 0 .2.4.3 1.3.4 1.5.1 3.1-1 4.9-3.2 1.7-2.2 2.6-4.1 2.6-5.8 0-.7-.3-1-.8-.9"/><path d="m532.8 200.8.5-.9c4.1-7 7-10.5 8.8-10.5 1.6 0 2.7 1.2 3.2 3.6.2 1.8.3 3.7.5 5.5.3 3 .5 4.7.6 5.1.4 2.7 1.1 4 1.9 4 .4 0 .9-.3 1.5-1l1.1.3c0 .8-.3 1.4-1 1.8-.5.4-1 .5-1.4.5-2.8 0-4.5-3.1-5.1-9.4-.1-1.5-.3-3.5-.6-6.1-.2-1.6-.5-2.4-.8-2.4-.7 0-2.3 2-4.8 6.1-2.6 4.1-4.4 7.8-5.4 11.2-.3.9-.7 1.4-1.4 1.4-.9 0-1.3-.4-1.2-1.3 0-.3.6-4.4 1.8-12.2.1-1 .2-2.3.3-4.1.2-1.6.7-2.4 1.7-2.4.6 0 1 .2 1.2.6.1.4.2.9.3 1.3z"/><path d="m557.7 191.3c.9-.2 1.9-.3 3.1-.3.6 0 1.2.2 2 .6 1 .5 1.5 1.2 1.5 1.9 0 .1 0 .3-.1.4v.1s0 0-.1.2c-.2.1-.3.1-.2.1h-.1c-.1.1-.2.1-.4.1-.1 0-.3-.1-.5-.3-.4-.9-1-1.4-1.9-1.4-.3 0-.7.1-1 .2-.8.2-1.6.6-2.5 1.1v.5c-.2 1.9-.3 4.3-.2 7 .2 5.1 1.3 7.6 3.4 7.6.6 0 1.1-.3 1.6-.9s.8-.9 1-.9c.6 0 .9.3.9.9 0 .7-.6 1.3-1.7 2-.9.5-1.6.8-2.1.8-1.7 0-3.1-1-4.2-2.9-.7-1.4-1.2-2.9-1.4-4.5-.3-2.9-.3-5.8-.1-8.7-1.1.4-2.4 1.1-3.9 2.3-.2.2-.4.2-.5.2-.5 0-.8-.5-.8-1.6 0-.7 1.6-1.8 4.7-3.3.2 0 .4-.1.6-.1.1-1.3.3-3.3.6-5.9s.9-3.9 1.9-3.9c.8 0 1.3.5 1.3 1.6z"/><path d="m581.1 189.7c-.1 0-.5-.2-1.1-.5s-1.1-.5-1.5-.5c-1.3-.1-3.1.8-5.5 2.9s-3.6 3.9-3.6 5.3c0 .8 1.4 1.2 4.2 1.2 5.4 0 8.1 1.5 8.1 4.5 0 2.1-1.2 4-3.6 5.7-2.2 1.5-4.4 2.3-6.5 2.3-1 0-1.8-.3-2.7-.9-1-.7-1.4-1.5-1.4-2.6 0-.4.2-1 .6-1.6.4-.7.9-1 1.4-1 .1 0 .3 0 .4.1-.1.7-.2 1.2-.3 1.6-.1.2-.1.4-.1.7 0 .9.5 1.3 1.5 1.3 1.6 0 3.4-.5 5.4-1.6 2.3-1.2 3.4-2.4 3.4-3.6 0-.8-.4-1.4-1.2-2-.7-.4-1.4-.7-2.2-.7l-5.5-.2c-.9 0-1.8-.2-2.7-.6-1.2-.5-1.8-1.1-1.8-1.8 0-1.9 1.5-4.3 4.5-7.2s5.5-4.4 7.5-4.4c.6 0 1.3.2 2.1.7 1 .5 1.5 1.1 1.5 1.8.1.7-.2 1.1-.9 1.1"/><path d="m587.6 208.2c-.5 0-.9-.2-1.4-.5-.5-.4-.7-.8-.7-1.3 0-1 .5-1.5 1.6-1.5 1.5 0 2.2.4 2.2 1.3 0 1.3-.5 2-1.7 2"/></g></svg>